<svg xmlns="http://www.w3.org/2000/svg" version="1.1" xmlns:xlink="http://www.w3.org/1999/xlink" xmlns:svgjs="http://svgjs.com/svgjs" width="1440" height="560" preserveAspectRatio="none" viewBox="0 0 1440 560"><g mask="url(&quot;#SvgjsMask1000&quot;)" fill="none"><rect width="1440" height="560" x="0" y="0" fill="#0e2a47"></rect><path d="M 0,255 C 57.6,210.4 172.8,33.6 288,32 C 403.2,30.4 460.8,227.2 576,247 C 691.2,266.8 748.8,128.6 864,131 C 979.2,133.4 1036.8,259.2 1152,259 C 1267.2,258.8 1382.4,155.8 1440,130L1440 560L0 560z" fill="#184a7e"></path><path d="M 0,427 C 96,405.6 288,300.8 480,320 C 672,339.2 768,522.6 960,523 C 1152,523.4 1344,362.2 1440,322L1440 560L0 560z" fill="#2264ab"></path></g><defs><mask id="SvgjsMask1000"><rect width="1440" height="560" fill="#ffffff"></rect></mask></defs></svg>